<?xml version="1.0" encoding="UTF-8" standalone="no"?>
<!-- Created with Inkscape (http://www.inkscape.org/) -->

<svg
   xmlns:dc="http://purl.org/dc/elements/1.1/"
   xmlns:cc="http://creativecommons.org/ns#"
   xmlns:rdf="http://www.w3.org/1999/02/22-rdf-syntax-ns#"
   xmlns:svg="http://www.w3.org/2000/svg"
   xmlns="http://www.w3.org/2000/svg"
   xmlns:sodipodi="http://sodipodi.sourceforge.net/DTD/sodipodi-0.dtd"
   xmlns:inkscape="http://www.inkscape.org/namespaces/inkscape"
   inkscape:export-ydpi="90"
   inkscape:export-xdpi="90"
   inkscape:export-filename="/home/alecive/Scrivania/iCubAttempt1.jpg.png"
   sodipodi:docname="logo.svg"
   inkscape:version="0.91+devel r"
   version="1.1"
   id="svg36198"
   height="512"
   width="512">
  <defs
     id="defs36200" />
  <sodipodi:namedview
     id="base"
     pagecolor="#ffffff"
     bordercolor="#666666"
     borderopacity="1.0"
     inkscape:pageopacity="0.0"
     inkscape:pageshadow="2"
     inkscape:zoom="1"
     inkscape:cx="108.01245"
     inkscape:cy="230.18732"
     inkscape:document-units="px"
     inkscape:current-layer="layer1"
     showgrid="false"
     fit-margin-top="0"
     fit-margin-left="0"
     fit-margin-right="0"
     fit-margin-bottom="0"
     inkscape:window-width="1855"
     inkscape:window-height="1056"
     inkscape:window-x="65"
     inkscape:window-y="24"
     inkscape:window-maximized="1" />
  <metadata
     id="metadata36203">
    <rdf:RDF>
      <cc:Work
         rdf:about="">
        <dc:format>image/svg+xml</dc:format>
        <dc:type
           rdf:resource="http://purl.org/dc/dcmitype/StillImage" />
        <dc:title></dc:title>
      </cc:Work>
    </rdf:RDF>
  </metadata>
  <g
     inkscape:label="Livello 1"
     inkscape:groupmode="layer"
     id="layer1"
     transform="translate(-280.33287,-101.27761)">
    <path
       id="path36102"
       style="fill:#fafaf5;fill-opacity:1"
       d="m 515.04786,136.73854 c -20.70056,-0.002 -40.21107,1.07662 -55.92615,3.46957 -95.8538,14.59569 -169.62216,106.7967 -174.71761,218.33504 -2.4892,54.48874 16.11173,107.40468 51.05224,145.14366 19.89936,21.49317 34.70394,29.54231 66.25226,35.93483 l 21.56089,4.37826 25.11307,-8.09566 c 14.5428,-4.65848 34.33243,-8.72965 47.08702,-9.74784 54.29465,-8.48905 38.32113,-7.28638 54.76963,-6.19566 -5.63759,3.48424 -1.40353,5.35837 24.61742,10.57393 13.56003,2.71795 30.56526,6.67902 37.83483,8.83914 7.26957,2.16012 25.93591,7.41494 41.46962,11.73045 15.5337,4.31548 30.40329,9.12091 33.04352,10.65653 6.80958,3.96057 29.59306,3.63445 43.86527,-0.66087 26.44975,-7.96018 36.86107,-22.8078 41.30439,-58.73485 1.45495,-11.76408 5.11268,-27.74432 8.17827,-35.52178 6.57744,-16.68709 5.63178,-22.27393 -6.19565,-36.43048 C 759.31414,412.40784 757.95643,406.36098 761.96556,377.29535 780.24415,244.77842 748.17784,184.84186 641.02628,151.27768 611.86054,142.14179 560.5891,136.74299 515.04786,136.73854 z m 2.23044,265.42206 c 10.63608,0 11.64726,10.90573 8.34349,14.37393 -2.93741,3.08362 -9.023,4.83207 -13.1348,1.98261 -6.80659,-4.71695 -4.58073,-16.35654 4.79131,-16.35654 z"
       inkscape:connector-curvature="0"
       sodipodi:nodetypes="sssscccccsssssssssssssss" />
    <path
       d="m 737.08279,413.42323 c -8.91527,-9.78635 -11.40437,-16.75439 -11.28193,-31.58299 0.21756,-26.35681 16.84839,-55.78635 22.78404,-40.3183 0.96326,2.51019 -0.58638,5.65559 -3.94545,8.00837 -12.28096,8.60194 -14.6861,39.88046 -4.24919,55.26013 7.71175,11.3639 5.18606,17.95622 -3.30747,8.63279 z M 515.04786,136.73854 c -20.70056,-0.002 -40.21107,1.07662 -55.92615,3.46957 -95.8538,14.59569 -169.62216,106.7967 -174.71761,218.33504 -2.4892,54.48874 16.11173,107.40468 51.05224,145.14365 19.89936,21.4932 34.70394,29.5423 66.25226,35.9348 l 21.56089,4.3783 25.11307,-8.0957 c 14.5428,-4.6584 34.33243,-8.7296 47.08702,-9.7478 28.70554,-2.2915 28.66525,-2.2149 28.66525,-30.31743 l 0,-23.37829 11.31741,-7.76522 c 6.21242,-4.27425 16.07657,-13.01516 21.97394,-19.41307 42.45878,-46.06232 33.09173,-110.39792 -19.24785,-132.09147 l -13.87828,-5.78261 -0.74348,-84.26097 -0.74348,-80.95662 c 1.45434,-0.20593 4.08267,-0.22761 7.68262,-0.16522 6.06118,0.1051 16.49461,1.2022 31.14351,2.56087 72.51908,6.726 134.56648,30.94457 163.15238,61.9566 29.49422,31.99744 41.04962,90.01387 30.64786,153.32192 -6.66538,40.56737 -3.67415,60.87092 10.57393,72.69575 10.56464,8.76789 12.27519,17.3014 6.52609,31.88699 -2.94613,7.47437 -6.52321,22.65971 -8.01305,33.78697 -4.92145,36.7574 -12.04711,47.68 -35.60439,54.7697 -17.62626,5.3047 -26.01144,4.7901 -48.8218,-2.974 -47.13566,-16.0438 -123.79543,-33.8183 -129.86103,-30.0696 -5.63759,3.4843 -1.40353,5.3584 24.61742,10.574 13.56003,2.7179 30.56526,6.679 37.83483,8.8391 7.26957,2.1601 25.93591,7.415 41.46962,11.7305 15.5337,4.3154 30.40329,9.1209 33.04352,10.6565 6.80958,3.9606 29.59306,3.6344 43.86527,-0.6609 26.44975,-7.9602 36.86107,-22.8078 41.30439,-58.7348 1.45495,-11.76411 5.11268,-27.74435 8.17827,-35.52181 6.57744,-16.68709 5.63178,-22.27393 -6.19565,-36.43048 C 759.31414,412.40784 757.95643,406.36098 761.96556,377.29535 780.24415,244.77842 748.17784,184.84186 641.02628,151.27768 611.86054,142.14179 560.5891,136.74299 515.04786,136.73854 z m 2.23044,265.42206 c 10.63608,0 11.64726,10.90573 8.34349,14.37393 -2.93741,3.08362 -9.023,4.83207 -13.1348,1.98261 -6.80659,-4.71695 -4.58073,-16.35654 4.79131,-16.35654 z"
       style="fill:#232323;fill-opacity:1"
       id="path3808"
       inkscape:connector-curvature="0" />
  </g>
</svg>
